# xmcd
#
# Track frame offsets:
#	150
#	19852
#	36385
#	52590
#	69210
#	87100
#	106275
#	120255
#	142682
#	157627
#	170975
#	185725
#	200932
#	216027
#	238335
#
# Disc length: 3439 seconds
#
# Revision: 2
# Processed by: cddbd v1.4b42PL1 Copyright (c) Steve Scherf et al.
# Submitted via: EZCDDA 4.3.2
#
DISCID=c70d6d0f
DTITLE=Guilherme and Santiago
DYEAR=1900
DGENRE=
TTITLE0=NA RUA
TTITLE1=BAILA BAILA
TTITLE2=VARRER A CASA ELA NÃO QUER
TTITLE3=ESSA PAIXÃO ME CACHUCOU
TTITLE4=VÊ SE NÃO SOME
TTITLE5=DESESPERADAMENTE APAIXONADO
TTITLE6=PEÃO NÃO CHORA
TTITLE7=MENTIRA DE AMOR
TTITLE8=AI QUE TERM BÃO
TTITLE9=SUBLIME RENÚNCIA
TTITLE10=MEU GOIÁS
TTITLE11=ANJO LOIRO
TTITLE12=DANÇA LOUCA
TTITLE13=ME ESQUEÇA
TTITLE14=LOBO
EXTD=
EXTT0=
EXTT1=
EXTT2=
EXTT3=
EXTT4=
EXTT5=
EXTT6=
EXTT7=
EXTT8=
EXTT9=
EXTT10=
EXTT11=
EXTT12=
EXTT13=
EXTT14=
PLAYORDER=
